<svg xmlns="http://www.w3.org/2000/svg" width="880" height="280" viewBox="0 0 880 280" role="img" aria-label="Cumulative GitHub stars for AboveColin: 120 stars across 35 repositories since 2019-08-16.">
  <defs>
    <linearGradient id="fill" x1="0" y1="0" x2="0" y2="1">
      <stop offset="0%" stop-color="#3987e5" stop-opacity="0.30"/>
      <stop offset="100%" stop-color="#3987e5" stop-opacity="0.02"/>
    </linearGradient>
  </defs>
  <rect width="880" height="280" rx="10" fill="#0d1117"/>
  <text x="10" y="26" font-size="14" font-weight="600" fill="#e6edf3" font-family="-apple-system,BlinkMacSystemFont,Segoe UI,Helvetica,Arial,sans-serif">Stars over time</text>
  <text x="828" y="26" text-anchor="end" font-size="12" fill="#9198a1" font-family="-apple-system,BlinkMacSystemFont,Segoe UI,Helvetica,Arial,sans-serif">35 own public repositories, forks excluded. Last star 2026-09-24.</text>
  <line x1="48" y1="246.0" x2="828" y2="246.0" stroke="#30363d" stroke-width="1"/><text x="38" y="250.0" text-anchor="end" font-size="11" fill="#9198a1" font-family="-apple-system,BlinkMacSystemFont,Segoe UI,Helvetica,Arial,sans-serif">0</text><line x1="48" y1="180.0" x2="828" y2="180.0" stroke="#21262d" stroke-width="1"/><text x="38" y="184.0" text-anchor="end" font-size="11" fill="#9198a1" font-family="-apple-system,BlinkMacSystemFont,Segoe UI,Helvetica,Arial,sans-serif">50</text><line x1="48" y1="114.0" x2="828" y2="114.0" stroke="#21262d" stroke-width="1"/><text x="38" y="118.0" text-anchor="end" font-size="11" fill="#9198a1" font-family="-apple-system,BlinkMacSystemFont,Segoe UI,Helvetica,Arial,sans-serif">100</text><line x1="48" y1="48.0" x2="828" y2="48.0" stroke="#21262d" stroke-width="1"/><text x="38" y="52.0" text-anchor="end" font-size="11" fill="#9198a1" font-family="-apple-system,BlinkMacSystemFont,Segoe UI,Helvetica,Arial,sans-serif">150</text>
  <line x1="48.0" y1="48" x2="48.0" y2="246" stroke="#21262d" stroke-width="1"/><text x="48.0" y="264" text-anchor="middle" font-size="11" fill="#9198a1" font-family="-apple-system,BlinkMacSystemFont,Segoe UI,Helvetica,Arial,sans-serif">2019</text><line x1="89.5" y1="48" x2="89.5" y2="246" stroke="#21262d" stroke-width="1"/><text x="89.5" y="264" text-anchor="middle" font-size="11" fill="#9198a1" font-family="-apple-system,BlinkMacSystemFont,Segoe UI,Helvetica,Arial,sans-serif">2020</text><line x1="199.4" y1="48" x2="199.4" y2="246" stroke="#21262d" stroke-width="1"/><text x="199.4" y="264" text-anchor="middle" font-size="11" fill="#9198a1" font-family="-apple-system,BlinkMacSystemFont,Segoe UI,Helvetica,Arial,sans-serif">2021</text><line x1="309.1" y1="48" x2="309.1" y2="246" stroke="#21262d" stroke-width="1"/><text x="309.1" y="264" text-anchor="middle" font-size="11" fill="#9198a1" font-family="-apple-system,BlinkMacSystemFont,Segoe UI,Helvetica,Arial,sans-serif">2022</text><line x1="418.8" y1="48" x2="418.8" y2="246" stroke="#21262d" stroke-width="1"/><text x="418.8" y="264" text-anchor="middle" font-size="11" fill="#9198a1" font-family="-apple-system,BlinkMacSystemFont,Segoe UI,Helvetica,Arial,sans-serif">2023</text><line x1="528.4" y1="48" x2="528.4" y2="246" stroke="#21262d" stroke-width="1"/><text x="528.4" y="264" text-anchor="middle" font-size="11" fill="#9198a1" font-family="-apple-system,BlinkMacSystemFont,Segoe UI,Helvetica,Arial,sans-serif">2024</text><line x1="638.4" y1="48" x2="638.4" y2="246" stroke="#21262d" stroke-width="1"/><text x="638.4" y="264" text-anchor="middle" font-size="11" fill="#9198a1" font-family="-apple-system,BlinkMacSystemFont,Segoe UI,Helvetica,Arial,sans-serif">2025</text><line x1="748.1" y1="48" x2="748.1" y2="246" stroke="#21262d" stroke-width="1"/><text x="748.1" y="264" text-anchor="middle" font-size="11" fill="#9198a1" font-family="-apple-system,BlinkMacSystemFont,Segoe UI,Helvetica,Arial,sans-serif">2026</text>
  <path d="M 48.0 246.0 L 48.0 246.0 L 48.0 244.7 L 49.8 244.7 L 49.8 243.4 L 183.5 243.4 L 183.5 242.0 L 239.7 242.0 L 239.7 239.4 L 241.2 239.4 L 241.2 238.1 L 615.6 238.1 L 615.6 236.8 L 618.9 236.8 L 618.9 235.4 L 619.8 235.4 L 619.8 234.1 L 627.9 234.1 L 627.9 232.8 L 628.8 232.8 L 628.8 231.5 L 629.1 231.5 L 629.1 230.2 L 631.2 230.2 L 631.2 228.8 L 635.1 228.8 L 635.1 227.5 L 728.5 227.5 L 728.5 226.2 L 751.4 226.2 L 751.4 224.9 L 759.5 224.9 L 759.5 223.6 L 779.9 223.6 L 779.9 222.2 L 785.0 222.2 L 785.0 219.6 L 792.5 219.6 L 792.5 218.3 L 809.1 218.3 L 809.1 213.0 L 809.4 213.0 L 809.4 211.7 L 809.7 211.7 L 809.7 206.4 L 810.0 206.4 L 810.0 199.8 L 812.1 199.8 L 812.1 198.5 L 813.9 198.5 L 813.9 195.8 L 814.5 195.8 L 814.5 194.5 L 815.1 194.5 L 815.1 193.2 L 820.2 193.2 L 820.2 190.6 L 825.0 190.6 L 825.0 169.4 L 826.2 169.4 L 826.2 158.9 L 826.5 158.9 L 826.5 143.0 L 826.8 143.0 L 826.8 127.2 L 827.1 127.2 L 827.1 111.4 L 827.4 111.4 L 827.4 103.4 L 827.7 103.4 L 827.7 95.5 L 828.0 95.5 L 828.0 87.6 L 828.0 87.6 L 828.0 246.0 L 48.0 246.0 Z" fill="url(#fill)"/>
  <path d="M 48.0 246.0 L 48.0 246.0 L 48.0 244.7 L 49.8 244.7 L 49.8 243.4 L 183.5 243.4 L 183.5 242.0 L 239.7 242.0 L 239.7 239.4 L 241.2 239.4 L 241.2 238.1 L 615.6 238.1 L 615.6 236.8 L 618.9 236.8 L 618.9 235.4 L 619.8 235.4 L 619.8 234.1 L 627.9 234.1 L 627.9 232.8 L 628.8 232.8 L 628.8 231.5 L 629.1 231.5 L 629.1 230.2 L 631.2 230.2 L 631.2 228.8 L 635.1 228.8 L 635.1 227.5 L 728.5 227.5 L 728.5 226.2 L 751.4 226.2 L 751.4 224.9 L 759.5 224.9 L 759.5 223.6 L 779.9 223.6 L 779.9 222.2 L 785.0 222.2 L 785.0 219.6 L 792.5 219.6 L 792.5 218.3 L 809.1 218.3 L 809.1 213.0 L 809.4 213.0 L 809.4 211.7 L 809.7 211.7 L 809.7 206.4 L 810.0 206.4 L 810.0 199.8 L 812.1 199.8 L 812.1 198.5 L 813.9 198.5 L 813.9 195.8 L 814.5 195.8 L 814.5 194.5 L 815.1 194.5 L 815.1 193.2 L 820.2 193.2 L 820.2 190.6 L 825.0 190.6 L 825.0 169.4 L 826.2 169.4 L 826.2 158.9 L 826.5 158.9 L 826.5 143.0 L 826.8 143.0 L 826.8 127.2 L 827.1 127.2 L 827.1 111.4 L 827.4 111.4 L 827.4 103.4 L 827.7 103.4 L 827.7 95.5 L 828.0 95.5 L 828.0 87.6 L 828.0 87.6" fill="none" stroke="#3987e5" stroke-width="2" stroke-linejoin="round" stroke-linecap="round"/>
  <circle cx="828.0" cy="87.6" r="4.5" fill="#3987e5" stroke="#0d1117" stroke-width="2"/>
  <text x="838.0" y="91.6" text-anchor="start" font-size="13" font-weight="600" fill="#e6edf3" font-family="-apple-system,BlinkMacSystemFont,Segoe UI,Helvetica,Arial,sans-serif">120</text>
</svg>
